<mxfile host="drawio-plugin" modified="2022-01-08T19:32:29.518Z" agent="5.0 (Windows NT 6.2; Win64; x64) AppleWebKit/537.36 (KHTML, like Gecko) Chrome/89.0.4389.114 Safari/537.36" etag="nJXtMlZqB__DHA1SE2wG" version="15.5.4" type="embed"><diagram id="HYg7U7YeQen8tKx1YvNA" name="Page-1"><mxGraphModel dx="1111" dy="782" grid="1" gridSize="10" guides="1" tooltips="1" connect="1" arrows="1" fold="1" page="1" pageScale="1" pageWidth="827" pageHeight="1169" math="0" shadow="0"><root><mxCell id="0"/><mxCell id="1" parent="0"/><mxCell id="4YSodVz4LNyeT_gUnihc-25" value="Main" style="swimlane;fontStyle=0;childLayout=stackLayout;horizontal=1;startSize=26;fillColor=none;horizontalStack=0;resizeParent=1;resizeParentMax=0;resizeLast=0;collapsible=1;marginBottom=0;" parent="1" vertex="1"><mxGeometry x="90" y="150" width="140" height="52" as="geometry"/></mxCell><mxCell id="4YSodVz4LNyeT_gUnihc-33" value="&lt;abstract class&gt;&#10;Officer" style="swimlane;fontStyle=0;childLayout=stackLayout;horizontal=1;startSize=26;fillColor=none;horizontalStack=0;resizeParent=1;resizeParentMax=0;resizeLast=0;collapsible=1;marginBottom=0;" parent="1" vertex="1"><mxGeometry x="310" y="150" width="270" height="70" as="geometry"/></mxCell><mxCell id="4YSodVz4LNyeT_gUnihc-34" value="- superiorOfficer: Officer&#10;+ abstract processMessage(Message message)" style="text;strokeColor=none;fillColor=none;align=left;verticalAlign=top;spacingLeft=4;spacingRight=4;overflow=hidden;rotatable=0;points=[[0,0.5],[1,0.5]];portConstraint=eastwest;" parent="4YSodVz4LNyeT_gUnihc-33" vertex="1"><mxGeometry y="26" width="270" height="44" as="geometry"/></mxCell><mxCell id="4YSodVz4LNyeT_gUnihc-37" value="Message" style="swimlane;fontStyle=0;childLayout=stackLayout;horizontal=1;startSize=26;fillColor=none;horizontalStack=0;resizeParent=1;resizeParentMax=0;resizeLast=0;collapsible=1;marginBottom=0;" parent="1" vertex="1"><mxGeometry x="610" y="90" width="140" height="104" as="geometry"/></mxCell><mxCell id="4YSodVz4LNyeT_gUnihc-38" value="- rank: OfficerRank" style="text;strokeColor=none;fillColor=none;align=left;verticalAlign=top;spacingLeft=4;spacingRight=4;overflow=hidden;rotatable=0;points=[[0,0.5],[1,0.5]];portConstraint=eastwest;" parent="4YSodVz4LNyeT_gUnihc-37" vertex="1"><mxGeometry y="26" width="140" height="26" as="geometry"/></mxCell><mxCell id="4YSodVz4LNyeT_gUnihc-39" value="- code: int" style="text;strokeColor=none;fillColor=none;align=left;verticalAlign=top;spacingLeft=4;spacingRight=4;overflow=hidden;rotatable=0;points=[[0,0.5],[1,0.5]];portConstraint=eastwest;" parent="4YSodVz4LNyeT_gUnihc-37" vertex="1"><mxGeometry y="52" width="140" height="26" as="geometry"/></mxCell><mxCell id="4YSodVz4LNyeT_gUnihc-40" value="- content: String" style="text;strokeColor=none;fillColor=none;align=left;verticalAlign=top;spacingLeft=4;spacingRight=4;overflow=hidden;rotatable=0;points=[[0,0.5],[1,0.5]];portConstraint=eastwest;" parent="4YSodVz4LNyeT_gUnihc-37" vertex="1"><mxGeometry y="78" width="140" height="26" as="geometry"/></mxCell><mxCell id="4YSodVz4LNyeT_gUnihc-41" value="&lt;enum&gt; OfficerRank" style="swimlane;fontStyle=0;childLayout=stackLayout;horizontal=1;startSize=26;fillColor=none;horizontalStack=0;resizeParent=1;resizeParentMax=0;resizeLast=0;collapsible=1;marginBottom=0;" parent="1" vertex="1"><mxGeometry x="670" y="220" width="140" height="104" as="geometry"/></mxCell><mxCell id="4YSodVz4LNyeT_gUnihc-42" value="SERGEANT" style="text;strokeColor=none;fillColor=none;align=left;verticalAlign=top;spacingLeft=4;spacingRight=4;overflow=hidden;rotatable=0;points=[[0,0.5],[1,0.5]];portConstraint=eastwest;" parent="4YSodVz4LNyeT_gUnihc-41" vertex="1"><mxGeometry y="26" width="140" height="26" as="geometry"/></mxCell><mxCell id="4YSodVz4LNyeT_gUnihc-43" value="CAPTAIN" style="text;strokeColor=none;fillColor=none;align=left;verticalAlign=top;spacingLeft=4;spacingRight=4;overflow=hidden;rotatable=0;points=[[0,0.5],[1,0.5]];portConstraint=eastwest;" parent="4YSodVz4LNyeT_gUnihc-41" vertex="1"><mxGeometry y="52" width="140" height="26" as="geometry"/></mxCell><mxCell id="4YSodVz4LNyeT_gUnihc-44" value="GENERAL" style="text;strokeColor=none;fillColor=none;align=left;verticalAlign=top;spacingLeft=4;spacingRight=4;overflow=hidden;rotatable=0;points=[[0,0.5],[1,0.5]];portConstraint=eastwest;" parent="4YSodVz4LNyeT_gUnihc-41" vertex="1"><mxGeometry y="78" width="140" height="26" as="geometry"/></mxCell><mxCell id="4YSodVz4LNyeT_gUnihc-57" value="Segeant" style="swimlane;fontStyle=1;align=center;verticalAlign=top;childLayout=stackLayout;horizontal=1;startSize=26;horizontalStack=0;resizeParent=1;resizeParentMax=0;resizeLast=0;collapsible=1;marginBottom=0;" parent="1" vertex="1"><mxGeometry x="70" y="360" width="220" height="94" as="geometry"/></mxCell><mxCell id="4YSodVz4LNyeT_gUnihc-58" value="- static final CODE: int&#10;- static final NAME: String" style="text;strokeColor=none;fillColor=none;align=left;verticalAlign=top;spacingLeft=4;spacingRight=4;overflow=hidden;rotatable=0;points=[[0,0.5],[1,0.5]];portConstraint=eastwest;" parent="4YSodVz4LNyeT_gUnihc-57" vertex="1"><mxGeometry y="26" width="220" height="34" as="geometry"/></mxCell><mxCell id="4YSodVz4LNyeT_gUnihc-59" value="" style="line;strokeWidth=1;fillColor=none;align=left;verticalAlign=middle;spacingTop=-1;spacingLeft=3;spacingRight=3;rotatable=0;labelPosition=right;points=[];portConstraint=eastwest;" parent="4YSodVz4LNyeT_gUnihc-57" vertex="1"><mxGeometry y="60" width="220" height="8" as="geometry"/></mxCell><mxCell id="4YSodVz4LNyeT_gUnihc-60" value="+ processMessage(Message message)" style="text;strokeColor=none;fillColor=none;align=left;verticalAlign=top;spacingLeft=4;spacingRight=4;overflow=hidden;rotatable=0;points=[[0,0.5],[1,0.5]];portConstraint=eastwest;" parent="4YSodVz4LNyeT_gUnihc-57" vertex="1"><mxGeometry y="68" width="220" height="26" as="geometry"/></mxCell><mxCell id="4YSodVz4LNyeT_gUnihc-61" value="Captain" style="swimlane;fontStyle=1;align=center;verticalAlign=top;childLayout=stackLayout;horizontal=1;startSize=26;horizontalStack=0;resizeParent=1;resizeParentMax=0;resizeLast=0;collapsible=1;marginBottom=0;" parent="1" vertex="1"><mxGeometry x="330" y="360" width="230" height="94" as="geometry"/></mxCell><mxCell id="4YSodVz4LNyeT_gUnihc-62" value="- static final CODE: int&#10;- static final NAME: String" style="text;strokeColor=none;fillColor=none;align=left;verticalAlign=top;spacingLeft=4;spacingRight=4;overflow=hidden;rotatable=0;points=[[0,0.5],[1,0.5]];portConstraint=eastwest;" parent="4YSodVz4LNyeT_gUnihc-61" vertex="1"><mxGeometry y="26" width="230" height="34" as="geometry"/></mxCell><mxCell id="4YSodVz4LNyeT_gUnihc-63" value="" style="line;strokeWidth=1;fillColor=none;align=left;verticalAlign=middle;spacingTop=-1;spacingLeft=3;spacingRight=3;rotatable=0;labelPosition=right;points=[];portConstraint=eastwest;" parent="4YSodVz4LNyeT_gUnihc-61" vertex="1"><mxGeometry y="60" width="230" height="8" as="geometry"/></mxCell><mxCell id="4YSodVz4LNyeT_gUnihc-64" value="+ proicessMEssage(Message message)" style="text;strokeColor=none;fillColor=none;align=left;verticalAlign=top;spacingLeft=4;spacingRight=4;overflow=hidden;rotatable=0;points=[[0,0.5],[1,0.5]];portConstraint=eastwest;" parent="4YSodVz4LNyeT_gUnihc-61" vertex="1"><mxGeometry y="68" width="230" height="26" as="geometry"/></mxCell><mxCell id="4YSodVz4LNyeT_gUnihc-65" value="General" style="swimlane;fontStyle=1;align=center;verticalAlign=top;childLayout=stackLayout;horizontal=1;startSize=26;horizontalStack=0;resizeParent=1;resizeParentMax=0;resizeLast=0;collapsible=1;marginBottom=0;" parent="1" vertex="1"><mxGeometry x="590" y="360" width="220" height="94" as="geometry"/></mxCell><mxCell id="4YSodVz4LNyeT_gUnihc-66" value="- static final CODE: int&#10;- static final NAME: String" style="text;strokeColor=none;fillColor=none;align=left;verticalAlign=top;spacingLeft=4;spacingRight=4;overflow=hidden;rotatable=0;points=[[0,0.5],[1,0.5]];portConstraint=eastwest;" parent="4YSodVz4LNyeT_gUnihc-65" vertex="1"><mxGeometry y="26" width="220" height="34" as="geometry"/></mxCell><mxCell id="4YSodVz4LNyeT_gUnihc-67" value="" style="line;strokeWidth=1;fillColor=none;align=left;verticalAlign=middle;spacingTop=-1;spacingLeft=3;spacingRight=3;rotatable=0;labelPosition=right;points=[];portConstraint=eastwest;" parent="4YSodVz4LNyeT_gUnihc-65" vertex="1"><mxGeometry y="60" width="220" height="8" as="geometry"/></mxCell><mxCell id="4YSodVz4LNyeT_gUnihc-68" value="+ processMessage(Message message)" style="text;strokeColor=none;fillColor=none;align=left;verticalAlign=top;spacingLeft=4;spacingRight=4;overflow=hidden;rotatable=0;points=[[0,0.5],[1,0.5]];portConstraint=eastwest;" parent="4YSodVz4LNyeT_gUnihc-65" vertex="1"><mxGeometry y="68" width="220" height="26" as="geometry"/></mxCell><mxCell id="4YSodVz4LNyeT_gUnihc-69" value="sendMessage" style="html=1;verticalAlign=bottom;endArrow=block;rounded=0;entryX=-0.015;entryY=-0.034;entryDx=0;entryDy=0;entryPerimeter=0;" parent="1" target="4YSodVz4LNyeT_gUnihc-34" edge="1"><mxGeometry x="0.0552" y="5" width="80" relative="1" as="geometry"><mxPoint x="230" y="175.57999999999998" as="sourcePoint"/><mxPoint x="290" y="176" as="targetPoint"/><mxPoint as="offset"/></mxGeometry></mxCell><mxCell id="4YSodVz4LNyeT_gUnihc-70" value="" style="endArrow=classic;html=1;rounded=0;entryX=0.235;entryY=1.121;entryDx=0;entryDy=0;entryPerimeter=0;exitX=0.697;exitY=-0.023;exitDx=0;exitDy=0;exitPerimeter=0;" parent="1" source="4YSodVz4LNyeT_gUnihc-57" target="4YSodVz4LNyeT_gUnihc-34" edge="1"><mxGeometry width="50" height="50" relative="1" as="geometry"><mxPoint x="220" y="340" as="sourcePoint"/><mxPoint x="270" y="290" as="targetPoint"/></mxGeometry></mxCell><mxCell id="4YSodVz4LNyeT_gUnihc-71" value="" style="endArrow=classic;html=1;rounded=0;entryX=0.463;entryY=1.14;entryDx=0;entryDy=0;entryPerimeter=0;exitX=0.46;exitY=-0.05;exitDx=0;exitDy=0;exitPerimeter=0;" parent="1" source="4YSodVz4LNyeT_gUnihc-61" target="4YSodVz4LNyeT_gUnihc-34" edge="1"><mxGeometry width="50" height="50" relative="1" as="geometry"><mxPoint x="400" y="340" as="sourcePoint"/><mxPoint x="450" y="290" as="targetPoint"/></mxGeometry></mxCell><mxCell id="4YSodVz4LNyeT_gUnihc-72" value="" style="endArrow=classic;html=1;rounded=0;entryX=0.775;entryY=1.064;entryDx=0;entryDy=0;entryPerimeter=0;exitX=0.239;exitY=-0.05;exitDx=0;exitDy=0;exitPerimeter=0;" parent="1" source="4YSodVz4LNyeT_gUnihc-65" target="4YSodVz4LNyeT_gUnihc-34" edge="1"><mxGeometry width="50" height="50" relative="1" as="geometry"><mxPoint x="630" y="350" as="sourcePoint"/><mxPoint x="680" y="300" as="targetPoint"/></mxGeometry></mxCell><mxCell id="2" value="" style="whiteSpace=wrap;html=1;" vertex="1" parent="1"><mxGeometry x="360" y="370" width="120" height="60" as="geometry"/></mxCell></root></mxGraphModel></diagram></mxfile>